TITLE ""
FILE "1Q_t_1449-1458.mp3" MP3
  TRACK 01 AUDIO
    TITLE "1Q_t_1449-1458_01"
    INDEX 01 00:00:00
  TRACK 02 AUDIO
    TITLE "1Q_t_1449-1458_02"
    INDEX 01 00:01:16
  TRACK 03 AUDIO
    TITLE "1Q_t_1449-1458_03"
    INDEX 01 00:01:23
  TRACK 04 AUDIO
    TITLE "1Q_t_1449-1458_04"
    INDEX 01 00:04:36
  TRACK 05 AUDIO
    TITLE "1Q_t_1449-1458_05"
    INDEX 01 00:04:43
  TRACK 06 AUDIO
    TITLE "1Q_t_1449-1458_06"
    INDEX 01 00:09:21
  TRACK 07 AUDIO
    TITLE "1Q_t_1449-1458_07"
    INDEX 01 00:09:66
  TRACK 08 AUDIO
    TITLE "1Q_t_1449-1458_08"
    INDEX 01 00:10:73
  TRACK 09 AUDIO
    TITLE "1Q_t_1449-1458_09"
    INDEX 01 00:11:04
  TRACK 10 AUDIO
    TITLE "1Q_t_1449-1458_10"
    INDEX 01 00:12:41
  TRACK 11 AUDIO
    TITLE "1Q_t_1449-1458_11"
    INDEX 01 00:12:47
  TRACK 12 AUDIO
    TITLE "1Q_t_1449-1458_12"
    INDEX 01 00:18:08
  TRACK 13 AUDIO
    TITLE "1Q_t_1449-1458_13"
    INDEX 01 00:18:53
  TRACK 14 AUDIO
    TITLE "1Q_t_1449-1458_14"
    INDEX 01 00:19:59
  TRACK 15 AUDIO
    TITLE "1Q_t_1449-1458_15"
    INDEX 01 00:19:66
  TRACK 16 AUDIO
    TITLE "1Q_t_1449-1458_16"
    INDEX 01 00:20:70
  TRACK 17 AUDIO
    TITLE "1Q_t_1449-1458_17"
    INDEX 01 00:21:01
  TRACK 18 AUDIO
    TITLE "1Q_t_1449-1458_18"
    INDEX 01 00:25:14
  TRACK 19 AUDIO
    TITLE "1Q_t_1449-1458_19"
    INDEX 01 00:25:59
  TRACK 20 AUDIO
    TITLE "1Q_t_1449-1458_20"
    INDEX 01 00:26:68
  TRACK 21 AUDIO
    TITLE "1Q_t_1449-1458_21"
    INDEX 01 00:27:01
  TRACK 22 AUDIO
    TITLE "1Q_t_1449-1458_22"
    INDEX 01 00:29:22
  TRACK 23 AUDIO
    TITLE "1Q_t_1449-1458_23"
    INDEX 01 00:29:28
  TRACK 24 AUDIO
    TITLE "1Q_t_1449-1458_24"
    INDEX 01 00:33:41
  TRACK 25 AUDIO
    TITLE "1Q_t_1449-1458_25"
    INDEX 01 00:34:13
  TRACK 26 AUDIO
    TITLE "1Q_t_1449-1458_26"
    INDEX 01 00:35:32
  TRACK 27 AUDIO
    TITLE "1Q_t_1449-1458_27"
    INDEX 01 00:35:40
  TRACK 28 AUDIO
    TITLE "1Q_t_1449-1458_28"
    INDEX 01 00:38:30
  TRACK 29 AUDIO
    TITLE "1Q_t_1449-1458_29"
    INDEX 01 00:38:34
  TRACK 30 AUDIO
    TITLE "1Q_t_1449-1458_30"
    INDEX 01 00:43:22
  TRACK 31 AUDIO
    TITLE "1Q_t_1449-1458_31"
    INDEX 01 00:43:67
  TRACK 32 AUDIO
    TITLE "1Q_t_1449-1458_32"
    INDEX 01 00:45:01
  TRACK 33 AUDIO
    TITLE "1Q_t_1449-1458_33"
    INDEX 01 00:45:07
  TRACK 34 AUDIO
    TITLE "1Q_t_1449-1458_34"
    INDEX 01 00:47:45
  TRACK 35 AUDIO
    TITLE "1Q_t_1449-1458_35"
    INDEX 01 00:47:51
  TRACK 36 AUDIO
    TITLE "1Q_t_1449-1458_36"
    INDEX 01 00:51:61
  TRACK 37 AUDIO
    TITLE "1Q_t_1449-1458_37"
    INDEX 01 00:52:31
  TRACK 38 AUDIO
    TITLE "1Q_t_1449-1458_38"
    INDEX 01 00:53:40
  TRACK 39 AUDIO
    TITLE "1Q_t_1449-1458_39"
    INDEX 01 00:53:46
  TRACK 40 AUDIO
    TITLE "1Q_t_1449-1458_40"
    INDEX 01 00:54:53
  TRACK 41 AUDIO
    TITLE "1Q_t_1449-1458_41"
    INDEX 01 00:54:61
  TRACK 42 AUDIO
    TITLE "1Q_t_1449-1458_42"
    INDEX 01 00:59:70
  TRACK 43 AUDIO
    TITLE "1Q_t_1449-1458_43"
    INDEX 01 01:00:38
  TRACK 44 AUDIO
    TITLE "1Q_t_1449-1458_44"
    INDEX 01 01:01:30
  TRACK 45 AUDIO
    TITLE "1Q_t_1449-1458_45"
    INDEX 01 01:01:47
  TRACK 46 AUDIO
    TITLE "1Q_t_1449-1458_46"
    INDEX 01 01:03:56
  TRACK 47 AUDIO
    TITLE "1Q_t_1449-1458_47"
    INDEX 01 01:03:64
  TRACK 48 AUDIO
    TITLE "1Q_t_1449-1458_48"
    INDEX 01 01:08:26
  TRACK 49 AUDIO
    TITLE "1Q_t_1449-1458_49"
    INDEX 01 01:08:71
  TRACK 50 AUDIO
    TITLE "1Q_t_1449-1458_50"
    INDEX 01 01:09:68
  TRACK 51 AUDIO
    TITLE "1Q_t_1449-1458_51"
    INDEX 01 01:10:01
  TRACK 52 AUDIO
    TITLE "1Q_t_1449-1458_52"
    INDEX 01 01:11:04
  TRACK 53 AUDIO
    TITLE "1Q_t_1449-1458_53"
    INDEX 01 01:11:08
  TRACK 54 AUDIO
    TITLE "1Q_t_1449-1458_54"
    INDEX 01 01:16:02
  TRACK 55 AUDIO
    TITLE "1Q_t_1449-1458_55"
    INDEX 01 01:16:47
  TRACK 56 AUDIO
    TITLE "1Q_t_1449-1458_56"
    INDEX 01 01:17:68
  TRACK 57 AUDIO
    TITLE "1Q_t_1449-1458_57"
    INDEX 01 01:18:01
  TRACK 58 AUDIO
    TITLE "1Q_t_1449-1458_58"
    INDEX 01 01:20:68
  TRACK 59 AUDIO
    TITLE "1Q_t_1449-1458_59"
    INDEX 01 01:20:74
  TRACK 60 AUDIO
    TITLE "1Q_t_1449-1458_60"
    INDEX 01 01:26:28
